<?xml version="1.0" standalone="no"?><!DOCTYPE svg PUBLIC "-//W3C//DTD SVG 1.1//EN" "http://www.w3.org/Graphics/SVG/1.1/DTD/svg11.dtd"><svg t="1781060130922" class="icon" viewBox="0 0 1024 1024" version="1.1" xmlns="http://www.w3.org/2000/svg" p-id="6222" width="32" height="32" xmlns:xlink="http://www.w3.org/1999/xlink"><path d="M736.4 219.1H512c-6.5 0-12.1 2.3-16.7 6.9-4.6 4.6-6.9 10.2-6.9 16.7s2.3 12.1 6.9 16.7c4.6 4.6 10.2 6.9 16.7 6.9h224.4c6.5 0 12.1-2.3 16.7-6.9 4.6-4.6 6.9-10.2 6.9-16.7s-2.3-12.1-6.9-16.7c-4.6-4.6-10.2-6.9-16.7-6.9zM736.4 151.8H512c-6.5 0-12.1 2.3-16.7 6.9-4.6 4.6-6.9 10.2-6.9 16.7s2.3 12.1 6.9 16.7c4.6 4.6 10.2 6.9 16.7 6.9h224.4c6.5 0 12.1-2.3 16.7-6.9 4.6-4.6 6.9-10.2 6.9-16.7s-2.3-12.1-6.9-16.7c-4.6-4.6-10.2-6.9-16.7-6.9z" p-id="6223" fill="#1afa29"></path><path d="M939.2 338.6c-15.2-15.1-33.5-22.7-55-22.7h-12V135.3c0-20.3-7.3-37.5-21.8-51.9-14.5-14.3-32-21.5-52.6-21.5H450.6c-20.5 0-38.1 7.2-52.6 21.5s-21.8 31.6-21.8 51.9V316h-33.6l-28.5-106.7c-4.5-17-13.8-30.8-27.8-41.5s-29.8-16-47.4-16h-98.6c-21.5 0-39.8 7.5-55 22.6-15.2 15.1-22.8 33.3-22.8 54.7L62 881.9c0 21.3 7.5 39.5 22.7 54.7 15.1 15.1 33.4 22.7 54.8 22.8L884 962c21.5 0.1 39.9-7.4 55.2-22.6 15.3-15.1 22.9-33.4 22.9-54.8V393.3c-0.1-21.3-7.7-39.6-22.9-54.7z m-498-203.3c0-2.5 0.9-4.7 2.7-6.5 1.8-1.8 4-2.7 6.6-2.7h347.3c2.6 0 4.8 0.9 6.6 2.7 1.8 1.8 2.7 4 2.7 6.5V316h-366V135.3z m453.3 714.2h-0.4v35.1c0 2.7-1 5-2.9 6.9-1.9 1.9-4.3 2.9-7 2.9l-744.5-2.6c-2.7 0-5-1-6.9-2.9-1.9-1.9-2.9-4.2-2.9-6.9v-32.5h-0.5V557h0.8l0.3-327.9c0-2.7 1-5 2.9-6.9 1.9-1.9 4.2-2.9 6.9-2.9H239c5 0 8.2 2.4 9.5 7.3l41.9 156.9h593.9c2.7 0 5 1 7 2.9 1.9 1.9 2.9 4.2 2.9 6.9V557h0.4v292.5z" p-id="6224" fill="#1afa29"></path><path d="M231.8 670.6c-1.6 13.6-9.3 20.5-23 20.5-7.9 0-13.8-2.7-17.7-8.2v-0.2c-4.5-6-6.8-14.9-6.8-26.8 0-11.4 2.3-20.1 6.9-26 4.2-5.6 10.1-8.4 17.8-8.4 6.4 0 11.5 1.4 15.2 4.2 3.5 2.9 5.9 7.2 7.2 13.2l0.9 4.5h36.5l-1-6.5c-2.5-15.9-8.9-28-19.4-36.2l-0.1-0.1c-10-7.5-23.1-11.2-39.4-11.2-20 0-35.6 6.7-46.8 20.2-10.3 12-15.5 27.6-15.5 46.6 0 19.5 5.3 35.3 15.8 47.5 11 13 26.4 19.5 46.1 19.5 16.4 0 29.7-4.2 39.8-12.5 10.4-8.6 17-21.4 20-38.5l1.1-6.6h-37.1l-0.5 5zM343.9 589.4c-19.6 0-35.1 6.4-46.7 19.2-11.6 12.3-17.4 28.3-17.4 47.9 0 19.4 5.8 35.2 17.3 47.5 11.9 12.9 27.5 19.3 46.8 19.3s35-6.5 46.9-19.4c11.5-12.5 17.2-28.3 17.2-47.5 0-19.3-5.8-35.3-17.5-47.9-11.7-12.7-27.3-19.1-46.6-19.1zM364 681c-4.8 6.8-11.5 10.2-20.1 10.2-8.6 0-15.4-3.4-20.1-10.2-4.3-6.2-6.4-14.4-6.4-24.4 0-10.2 2.1-18.5 6.4-24.7 4.6-6.8 11.3-10.2 20.1-10.2s15.5 3.4 20.1 10.2c4.4 6.5 6.7 14.7 6.7 24.7 0 9.5-2.3 17.7-6.7 24.4zM482.4 589.4c-19.6 0-35.1 6.4-46.7 19.2-11.6 12.3-17.4 28.3-17.4 47.9 0 19.4 5.8 35.2 17.3 47.5 11.9 12.9 27.5 19.3 46.8 19.3s35-6.5 46.9-19.4c11.5-12.5 17.2-28.3 17.2-47.5 0-19.3-5.8-35.3-17.5-47.9-11.7-12.7-27.2-19.1-46.6-19.1z m20.1 91.6c-4.8 6.8-11.5 10.2-20.1 10.2-8.6 0-15.4-3.4-20.1-10.2-4.3-6.2-6.4-14.4-6.4-24.4 0-10.2 2.1-18.5 6.4-24.7 4.6-6.8 11.3-10.2 20.1-10.2s15.5 3.4 20.1 10.2c4.4 6.5 6.7 14.7 6.7 24.7 0 9.5-2.2 17.7-6.7 24.4zM683.2 592.5h-49.7L593.7 631v-85.9h-36.9v175h36.9v-43.9l5.5-5.1 38.6 49h47.5l-60.2-73.3zM700.1 592.5H737v127.6h-36.9zM735 551.4c-4.5-4.2-10-6.3-16.5-6.3-6.4 0-11.8 2.1-16.2 6.2-4.5 4.2-6.7 9.6-6.7 16.3 0 6.5 2.2 12 6.6 16.4l0.1 0.1 0.1 0.1c4.5 4.2 9.9 6.2 16.2 6.2 6.4 0 11.8-2.1 16.2-6.2 4.6-4.3 7-9.8 7-16.5-0.1-6.5-2.3-11.9-6.8-16.3zM862.1 610.9c-11.1-14.3-27.2-21.5-48.3-21.5-19.2 0-34.3 6.6-45.2 19.7-11.1 12.6-16.7 28.3-16.7 47.1 0 20.8 5.9 37.3 17.8 49.4 11.3 11.8 26.3 17.7 45.2 17.7 16.7 0 30.8-4.9 42.3-14.6h0.1c8.9-7.9 14.9-17.9 17.9-30.1l1.7-7h-36.4l-1.5 3.2c-2.8 5.8-5.7 9.8-8.6 12.1-4 2.9-9.2 4.3-15.8 4.3-7.5 0-13.3-2.2-17.2-6.6-3.2-3.6-5.4-8.8-6.6-15.4h86.3v-5.6c0.2-22.4-4.9-39.9-15-52.7z m-70 27.6c1.5-4.8 3.6-8.6 6.3-11.3 3.7-3.7 9.1-5.6 16-5.6 12.5 0 20.4 5.6 23.6 16.9h-45.9z" p-id="6225" fill="#1afa29"></path></svg>