<?xml version="1.0" standalone="no"?><!DOCTYPE svg PUBLIC "-//W3C//DTD SVG 1.1//EN" "http://www.w3.org/Graphics/SVG/1.1/DTD/svg11.dtd"><svg t="1781059978297" class="icon" viewBox="0 0 1024 1024" version="1.1" xmlns="http://www.w3.org/2000/svg" p-id="1678" width="32" height="32" xmlns:xlink="http://www.w3.org/1999/xlink"><path d="M964.348424 509.865574L556.935274 692.602355c-38.943904 16.476267-53.922329 16.476267-89.870548 0L59.651576 509.865574C38.681782 499.380677 32.690412 455.943246 32.690412 433.475609a652.834638 652.834638 0 0 0 64.407226 31.454692L512 656.654136l414.902362-191.723835s37.446062-19.471952 64.407226-31.454692c0 23.965479-7.489212 67.402911-26.961164 76.389965z m0-191.723835L556.935274 500.87852c-38.943904 16.476267-53.922329 16.476267-89.870548 0L59.651576 318.141739c-31.454692-16.476267-31.454692-70.398596 0-89.870548L467.064726 14.079719c35.948219-17.97411 58.415856-19.471952 89.870548 0l407.41315 214.191472c29.956849 16.476267 29.956849 76.389966 0 89.870548zM512 50.027938L97.097638 273.206465 512 448.454033l414.902362-175.247568z m0 774.983691l414.902362-191.723836s37.446062-19.471952 64.407226-31.454691c0 23.965479-7.489212 67.402911-26.961164 76.389965L556.935274 861.259416c-38.943904 16.476267-53.922329 16.476267-89.870548 0L59.651576 678.223067C38.681782 666.539896 32.690412 624.300739 32.690412 601.833102a652.834638 652.834638 0 0 0 64.407226 31.454691z m0 150.682952l414.902362-191.723836s37.446062-19.471952 64.407226-31.454691c0 23.965479-7.489212 67.402911-26.961164 76.389965L556.935274 1011.6428c-38.943904 16.476267-53.922329 16.476267-89.870548 0l-407.41315-182.736781c-20.969794-11.98274-26.961164-53.922329-26.961164-76.389965a652.834638 652.834638 0 0 0 64.407226 31.454691z" p-id="1679" fill="#dbdbdb"></path></svg>